<?xml version="1.0" standalone="no"?>
<!DOCTYPE svg PUBLIC "-//W3C//DTD SVG 20010904//EN"
 "http://www.w3.org/TR/2001/REC-SVG-20010904/DTD/svg10.dtd">
<svg version="1.0" xmlns="http://www.w3.org/2000/svg"
 width="700.000000pt" height="700.000000pt" viewBox="0 0 700.000000 700.000000"
 preserveAspectRatio="xMidYMid meet">
<metadata>
Created by potrace 1.11, written by Peter Selinger 2001-2013
</metadata>
<g transform="translate(0.000000,700.000000) scale(0.100000,-0.100000)"
fill="#000000" stroke="none">
<path d="M1735 6695 c-310 -50 -582 -242 -734 -518 -62 -111 -105 -249 -119
-372 -8 -81 -7 -4555 1 -4626 9 -75 50 -214 86 -294 47 -103 117 -202 204
-290 120 -119 234 -191 392 -247 155 -56 45 -53 2276 -53 l2065 0 50 25 c74
38 128 100 151 173 19 61 20 112 18 3017 -1 2447 -3 2962 -14 2995 -27 78 -86
144 -161 179 l-45 21 -2045 1 c-1631 2 -2061 -1 -2125 -11z m3805 -715 c3
-1327 0 -3634 -5 -3639 -4 -3 -844 -6 -1868 -7 -1024 -1 -1882 -4 -1907 -8
-39 -6 -73 -14 -140 -30 -8 -2 -42 -14 -75 -26 -33 -12 -66 -22 -73 -23 -11
-2 -13 299 -13 1733 0 954 3 1755 6 1780 8 66 67 179 123 236 52 53 133 99
207 118 35 8 510 11 1896 11 l1849 1 0 -146z m0 -4668 l0 -437 -1847 0 c-1498
1 -1858 3 -1903 14 -152 37 -284 170 -319 322 -23 96 -6 220 40 311 48 94 176
191 286 217 22 5 840 9 1891 10 l1852 1 0 -438z"/>
</g>
</svg>
